#N canvas 19 23 1920 997 10;
#X msg 217 704 stop;
#X obj 214 267 threshold~ 1 3000 0.1 1000;
#X obj 214 290 bng 15 250 50 0 empty empty empty 17 7 0 10 #fcfcfc #000000 #000000;
#N canvas 0 22 796 453 (subpatch) 0;
#X array array1 100 float 3;
#A 0 -0.00100711 -0.000671407 -0.00201422 -0.00134281 -0.00302133 -0.00285348 -0.00201422 -0.00218207 0.000167852 -0.00117496 -0.00134281 -0.00151067 -0.000839259 -0.000503555 -0.000671407 -0.000335704 -0.00100711 -0.00167852 -0.000167852 0.00100711 -0.00151067 0.000839259 -0.000335704 -0.000503555 0.00134281 0.000335704 -0.000503555 -0.000503555 -0.000671407 -0.000335704 0.000839259 -0.000839259 -0.000671407 -0.00151067 -0.000839259 -0.000671407 -0.00117496 -0.00100711 0.000167852 0.000167852 -0.000839259 -0.000167852 -0.00117496 0.000167852 -0.00134281 0.00100711 -0.000335704 0.00234993 -0.00117496 -0.000167852 0.000839259 -0.000671407 -0.000335704 -0.000839259 -0.000671407 -0.00318918 -0.00117496 -0.00134281 -0.00184637 -0.000671407 0.000839259 -0.00100711 -0.000671407 -0.000503555 -0.00134281 0.000503555 -0.000335704 -0.000839259 0 -0.00201422 0.000503555 0 -0.00100711 -0.000167852 -0.00151067 -0.000671407 0.000167852 0.00151067 -0.00100711 -0.00134281 -0.00167852 -0.00117496 -0.000671407 0.000167852 0.000671407 -0.000839259 -0.000671407 0.000335704 -0.000671407 -0.000503555 0.000503555 -0.000335704 0.000839259 -0.00151067 0.000335704 -0.000671407 0.00117496 0.000671407 -0.000503555 0.00117496;
#X coords 0 1 99 -1 200 140 1;
#X restore 717 143 graph;
#X obj 609 232 tabwrite~ array1;
#X obj 615 188 bng 15 250 50 0 empty empty empty 17 7 0 10 #fcfcfc #000000 #000000;
#X text 675 210 msec.;
#X obj 615 209 metro 160;
#X msg 58 794 stop;
#X obj 23 258 threshold~ 1 3000 0.1 1000;
#X obj 16 297 bng 15 250 50 0 empty empty empty 17 7 0 10 #fcfcfc #000000 #000000;
#X floatatom 17 398 5 0 0 0 - - - 0;
#X obj 550 191 *~ 5.5;
#X obj 75 686 readsf~ 4;
#X obj 266 698 readsf~ 4;
#X obj 868 819 *~, f 5;
#X obj 791 427 metro;
#X floatatom 826 400 5 0 0 0 - - - 0;
#X obj 791 400 tgl 15 0 empty empty empty 0 -6 0 8 #fcfcfc #000000 #000000 0 1;
#X obj 830 469 del;
#X obj 676 591 line~;
#X obj 676 615 abs~;
#X obj 675 643 *~ -1;
#X obj 674 667 +~ 1;
#X obj 918 819 *~;
#X obj 799 592 line~;
#X obj 799 616 abs~;
#X obj 798 644 *~ -1;
#X obj 797 668 +~ 1;
#X obj 831 819 *~;
#X obj 908 593 line~;
#X obj 908 617 abs~;
#X obj 907 645 *~ -1;
#X obj 906 669 +~ 1;
#X obj 1010 593 line~;
#X obj 1010 617 abs~;
#X obj 1009 645 *~ -1;
#X obj 904 495 del;
#X obj 923 465 / 4;
#X obj 1007 521 del;
#X obj 1026 491 / 4;
#X obj 676 542 f;
#X obj 799 543 f;
#X obj 908 544 f;
#X obj 1010 546 f;
#X text 991 387 speed;
#X obj 827 357 hsl 128 30 0 2000 0 0 empty empty empty -2 -8 0 10 #fcfcfc #000000 #000000 0 1;
#X obj 966 428 / 2;
#X obj 849 439 / 4;
#X obj 1008 669 +~ 2;
#X msg 676 568 -1 \, 1 \$1;
#X msg 799 569 -1 \, 1 \$1;
#X msg 908 570 -1 \, 1 \$1;
#X msg 1010 570 -1 \, 1 \$1;
#X text 772 396 ON;
#X obj 576 931 dac~ 1 2 3 4;
#X obj 268 84 adc~ 1 2 3;
#X obj 964 820 *~;
#X text 866 400 controlador manual;
#X obj 1573 544 +~;
#X obj 1572 496 +~;
#X obj 1572 521 +~;
#X obj 1696 479 +~;
#X obj 1573 575 +~;
#X obj 1574 598 +~;
#X obj 1572 475 +~;
#X obj 1803 621 osc~ 493.883;
#X obj 1772 393 +~;
#X obj 1683 391 +~;
#X obj 1581 363 +~;
#X text 1705 312 comment;
#X obj 1543 393 +~;
#X obj 1498 371 +~;
#X obj 1543 424 +~;
#X obj 1573 453 +~;
#X obj 1719 608 osc~ 379.91;
#X obj 1800 515 osc~ 292.238;
#X obj 1700 511 osc~ 224.798;
#X obj 1785 432 osc~ 172.922;
#X obj 1697 432 osc~ 133.017;
#X obj 1773 341 osc~ 102.321;
#X obj 1683 320 osc~ 78.708;
#X obj 1581 302 osc~ 60.544;
#X obj 1498 302 osc~ 46.572;
#X obj 1719 647 +~;
#X obj 1800 569 +~;
#X obj 1699 569 +~;
#X obj 1786 481 +~;
#X obj 1802 665 +~;
#X obj 1513 335 osc~ 47;
#X obj 1596 336 osc~ 61;
#X obj 1788 362 osc~ 103;
#X obj 1712 451 osc~ 134;
#X obj 1800 455 osc~ 173;
#X obj 1717 533 osc~ 225;
#X obj 1816 538 osc~ 293;
#X obj 1738 628 osc~ 380;
#X obj 1816 641 osc~ 494;
#X obj 1698 352 osc~ 79;
#X text 1471 252 Babel [493.883 hz/ 1.3];
#N canvas 189 75 660 424 chord 0;
#X obj 87 97 -~ 0.5;
#X obj 87 146 clip~ -0.5 0.5;
#X obj 87 169 cos~;
#X obj 91 315 outlet~;
#X obj 221 97 -~ 0.5;
#X obj 221 146 clip~ -0.5 0.5;
#X obj 221 169 cos~;
#X obj 356 100 -~ 0.5;
#X obj 356 149 clip~ -0.5 0.5;
#X obj 356 172 cos~;
#X obj 491 100 -~ 0.5;
#X obj 491 149 clip~ -0.5 0.5;
#X obj 491 172 cos~;
#X text 147 32 test sound for phaser;
#X obj 91 285 *~ 0.3;
#X obj 87 122 *~ 1;
#X obj 221 122 *~ 1;
#X obj 356 125 *~ 1;
#X obj 491 125 *~ 1;
#X obj 91 252 hip~ 3;
#X obj 87 74 phasor~ 79;
#X obj 221 74 phasor~ 81;
#X obj 356 77 phasor~ 83;
#X obj 491 77 phasor~ 85;
#X connect 0 0 15 0;
#X connect 1 0 2 0;
#X connect 2 0 19 0;
#X connect 4 0 16 0;
#X connect 5 0 6 0;
#X connect 6 0 19 0;
#X connect 7 0 17 0;
#X connect 8 0 9 0;
#X connect 9 0 19 0;
#X connect 10 0 18 0;
#X connect 11 0 12 0;
#X connect 12 0 19 0;
#X connect 14 0 3 0;
#X connect 15 0 1 0;
#X connect 16 0 5 0;
#X connect 17 0 8 0;
#X connect 18 0 11 0;
#X connect 19 0 14 0;
#X connect 20 0 0 0;
#X connect 21 0 4 0;
#X connect 22 0 7 0;
#X connect 23 0 10 0;
#X restore 1137 391 pd chord;
#X obj 1159 445 rpole~;
#X obj 1159 420 rzero_rev~;
#X obj 1159 494 rpole~;
#X obj 1159 469 rzero_rev~;
#X obj 1159 542 rpole~;
#X obj 1159 517 rzero_rev~;
#X obj 1159 591 rpole~;
#X obj 1159 566 rzero_rev~;
#X obj 1136 621 +~;
#X obj 1256 472 phasor~ 0.3;
#X obj 1256 504 expr~ 1 - 0.03 - 0.6*abs($v1-0.5)*abs($v1-0.5);
#X obj 1563 627 *~ 0.01;
#X obj 1139 667 *~ 0.01;
#X msg 16 462 open heartbeat.wav \, 1;
#X msg 42 500 open breathing.wav \, 1;
#X msg 355 602 stop;
#X obj 306 428 threshold~ 1 3000 0.1 1000;
#X obj 303 450 bng 15 250 50 0 empty empty empty 17 7 0 10 #fcfcfc #000000 #000000;
#X obj 402 609 readsf~ 4;
#X msg 214 343 open anxiety.wav \, 1;
#X obj 18 425 sel 0 1;
#X obj 212 315 metro 8000;
#X obj 301 474 metro 5000;
#X msg 306 523 open pitido.wav \, 1;
#X msg 523 457 open deep.wav \, 1;
#X obj 23 230 *~ 10.5;
#X obj 17 352 metro 6000;
#X obj 304 404 *~ 7;
#X obj 18 374 random 1;
#X obj -315 -8 *~;
#X obj -256 -20 hsl 162 19 0 127 0 0 empty empty empty -2 -10 0 12 #fcfcfc #000000 #000000 0 1;
#X obj 172 198 *~1;
#X text 188 207 me gustaría bajar un poco este audio \, lo he intentado aquí pero no cambia nada;
#X obj 515 381 threshold~ 1 3000 0.1 1000;
#X obj 511 403 bng 15 250 50 0 empty empty empty 17 7 0 10 #fcfcfc #000000 #000000;
#X obj 510 427 metro 5000;
#X obj 513 357 *~ 7;
#X msg 499 595 stop;
#X obj 546 602 readsf~ 4;
#X connect 0 0 14 0;
#X connect 1 0 2 0;
#X connect 2 0 122 0;
#X connect 5 0 7 0;
#X connect 7 0 4 0;
#X connect 8 0 13 0;
#X connect 9 0 10 0;
#X connect 10 0 127 0;
#X connect 11 0 121 0;
#X connect 12 0 4 0;
#X connect 13 0 15 0;
#X connect 13 1 24 0;
#X connect 13 2 29 0;
#X connect 13 3 57 0;
#X connect 14 0 55 0;
#X connect 14 0 55 1;
#X connect 15 0 55 0;
#X connect 16 0 19 0;
#X connect 16 0 41 0;
#X connect 17 0 16 1;
#X connect 17 0 38 0;
#X connect 17 0 40 0;
#X connect 17 0 47 0;
#X connect 17 0 48 0;
#X connect 18 0 16 0;
#X connect 19 0 37 0;
#X connect 19 0 42 0;
#X connect 19 0 43 0;
#X connect 19 0 44 0;
#X connect 20 0 21 0;
#X connect 21 0 22 0;
#X connect 22 0 23 0;
#X connect 23 0 15 1;
#X connect 24 0 55 1;
#X connect 25 0 26 0;
#X connect 26 0 27 0;
#X connect 27 0 28 0;
#X connect 28 0 24 1;
#X connect 29 0 55 2;
#X connect 30 0 31 0;
#X connect 31 0 32 0;
#X connect 32 0 33 0;
#X connect 33 0 29 1;
#X connect 34 0 35 0;
#X connect 35 0 36 0;
#X connect 36 0 49 0;
#X connect 37 0 39 0;
#X connect 38 0 37 1;
#X connect 40 0 39 1;
#X connect 41 0 50 0;
#X connect 42 0 51 0;
#X connect 43 0 52 0;
#X connect 44 0 53 0;
#X connect 46 0 17 0;
#X connect 47 0 44 1;
#X connect 47 0 43 1;
#X connect 47 0 42 1;
#X connect 47 0 41 1;
#X connect 48 0 19 1;
#X connect 49 0 57 1;
#X connect 50 0 20 0;
#X connect 51 0 25 0;
#X connect 52 0 30 0;
#X connect 53 0 34 0;
#X connect 56 0 12 0;
#X connect 56 0 126 0;
#X connect 56 0 128 0;
#X connect 56 0 132 0;
#X connect 56 0 137 0;
#X connect 57 0 55 3;
#X connect 59 0 63 0;
#X connect 60 0 61 0;
#X connect 61 0 59 0;
#X connect 62 0 65 1;
#X connect 63 0 64 0;
#X connect 64 0 112 0;
#X connect 65 0 60 0;
#X connect 66 0 88 0;
#X connect 67 0 74 1;
#X connect 68 0 73 1;
#X connect 71 0 73 0;
#X connect 73 0 74 0;
#X connect 74 0 65 0;
#X connect 75 0 84 0;
#X connect 76 0 85 0;
#X connect 77 0 86 0;
#X connect 78 0 87 0;
#X connect 79 0 62 0;
#X connect 80 0 67 0;
#X connect 81 0 68 0;
#X connect 82 0 69 0;
#X connect 83 0 72 0;
#X connect 84 0 63 1;
#X connect 85 0 59 1;
#X connect 86 0 61 1;
#X connect 87 0 60 1;
#X connect 88 0 64 1;
#X connect 89 0 72 1;
#X connect 90 0 69 1;
#X connect 91 0 67 1;
#X connect 92 0 62 1;
#X connect 93 0 87 1;
#X connect 94 0 86 1;
#X connect 95 0 85 1;
#X connect 96 0 84 1;
#X connect 97 0 88 1;
#X connect 98 0 68 1;
#X connect 100 0 102 0;
#X connect 100 0 109 0;
#X connect 101 0 104 0;
#X connect 102 0 101 0;
#X connect 103 0 106 0;
#X connect 104 0 103 0;
#X connect 105 0 108 0;
#X connect 106 0 105 0;
#X connect 107 0 109 1;
#X connect 108 0 107 0;
#X connect 109 0 113 0;
#X connect 110 0 111 0;
#X connect 111 0 102 1;
#X connect 111 0 101 1;
#X connect 111 0 104 1;
#X connect 111 0 103 1;
#X connect 111 0 106 1;
#X connect 111 0 105 1;
#X connect 111 0 108 1;
#X connect 111 0 107 1;
#X connect 112 0 15 0;
#X connect 112 0 24 0;
#X connect 112 0 29 0;
#X connect 112 0 57 0;
#X connect 113 0 57 0;
#X connect 113 0 29 0;
#X connect 113 0 24 0;
#X connect 113 0 15 0;
#X connect 114 0 13 0;
#X connect 115 0 13 0;
#X connect 116 0 119 0;
#X connect 117 0 118 0;
#X connect 118 0 123 0;
#X connect 119 0 55 0;
#X connect 119 0 55 1;
#X connect 120 0 14 0;
#X connect 121 1 114 0;
#X connect 121 2 115 0;
#X connect 122 0 120 0;
#X connect 123 0 124 0;
#X connect 124 0 119 0;
#X connect 125 0 139 0;
#X connect 126 0 9 0;
#X connect 127 0 129 0;
#X connect 128 0 117 0;
#X connect 129 0 11 0;
#X connect 131 0 130 1;
#X connect 132 0 1 0;
#X connect 134 0 135 0;
#X connect 135 0 136 0;
#X connect 136 0 125 0;
#X connect 137 0 134 0;
#X connect 138 0 139 0;
#X connect 139 0 55 0;
#X connect 139 1 55 1;
#X connect 139 2 55 2;
#X connect 139 3 55 3;
