#N canvas 19 23 1920 997 10;
#X msg 562 565 stop;
#X obj 626 263 threshold~ 1 3000 0.1 1000;
#X obj 626 286 bng 15 250 50 0 empty empty empty 17 7 0 10 #fcfcfc #000000 #000000;
#X floatatom 623 401 5 0 0 0 - - - 0;
#X obj 626 239 *~ 5;
#N canvas 0 22 796 453 (subpatch) 0;
#X array array1 100 float 3;
#A 0 -0.0443129 -0.0444807 -0.0433058 -0.0417951 -0.0463271 -0.0515305 -0.0569018 -0.0572375 -0.0580767 -0.0528733 -0.0505234 -0.0493484 -0.0488449 -0.0488449 -0.0501877 -0.0466628 -0.0456557 -0.0454878 -0.0443129 -0.049852 -0.0468307 -0.041963 -0.0434736 -0.0397809 -0.0391095 -0.0397809 -0.0334025 -0.0345775 -0.0337382 -0.0312204 -0.0313883 -0.0303812 -0.0292062 -0.0290384 -0.0278634 -0.0268563 -0.0323954 -0.032899 -0.0344096 -0.0370952 -0.0359203 -0.0359203 -0.0360881 -0.036256 -0.0359203 -0.0381024 -0.0431379 -0.0429701 -0.0522019 -0.0490127 -0.0530412 -0.0552232 -0.0547197 -0.0617695 -0.0607624 -0.0600909 -0.0567339 -0.0621052 -0.0542161 -0.0562304 -0.0560625 -0.0553911 -0.0565661 -0.0563982 -0.0565661 -0.0530412 -0.0508591 -0.04532 -0.0456557 -0.0422987 -0.0392773 -0.0381024 -0.0352489 -0.0315561 -0.0302133 -0.0276955 -0.0228278 -0.0251778 -0.0211493 -0.0255135 -0.026017 -0.0241707 -0.0258492 -0.0184637 -0.0166173 -0.0105747 -0.0107425 -0.0112461 -0.0119175 -0.0139317 -0.0142674 -0.0127567 -0.012421 -0.0140996 -0.0093997 -0.0104068 -0.00889615 -0.00721763 -0.00587481 -0.00469985;
#X coords 0 1 99 -1 200 140 1;
#X restore 957 140 graph;
#X obj 849 229 tabwrite~ array1;
#X obj 855 185 bng 15 250 50 0 empty empty empty 17 7 0 10 #fcfcfc #000000 #000000;
#X text 915 207 msec.;
#X obj 855 206 metro 160;
#X text 688 403 Aves e insectos 305000 msec;
#X msg 267 576 stop;
#X obj 351 267 threshold~ 1 3000 0.1 1000;
#X obj 344 306 bng 15 250 50 0 empty empty empty 17 7 0 10 #fcfcfc #000000 #000000;
#X floatatom 348 405 5 0 0 0 - - - 0;
#X text 396 404 entorno 305000 msec;
#X obj 351 238 *~ 1.5;
#X obj 791 188 *~ 5.5;
#X obj 348 383 random 4;
#X obj 349 361 metro 10000;
#X obj 624 378 random 4;
#X msg 346 473 open ak47.wav \, 1;
#X msg 343 502 open avión.wav \, 1;
#X msg 342 531 open sirena.wav \, 1;
#X msg 341 558 open marcha.wav \, 1;
#X msg 621 489 open ak47.wav \, 1;
#X msg 638 516 open avión.wav \, 1;
#X msg 652 541 open sirena.wav \, 1;
#X msg 668 571 open marcha.wav \, 1;
#X obj 428 648 readsf~ 4;
#X obj 772 616 readsf~ 4;
#X obj 348 428 sel 0 1 2 3;
#X obj 622 430 sel 0 1 2 3;
#X obj 624 357 metro 10200;
#X obj 871 726 *~;
#X obj 1031 424 metro;
#X floatatom 1066 397 5 0 0 0 - - - 0;
#X obj 1031 397 tgl 15 0 empty empty empty 0 -6 0 8 #fcfcfc #000000 #000000 0 1;
#X obj 1070 466 del;
#X obj 916 588 line~;
#X obj 916 612 abs~;
#X obj 915 640 *~ -1;
#X obj 914 664 +~ 1;
#X obj 962 747 *~;
#X obj 1039 589 line~;
#X obj 1039 613 abs~;
#X obj 1038 641 *~ -1;
#X obj 1037 665 +~ 1;
#X obj 1047 742 *~;
#X obj 1148 590 line~;
#X obj 1148 614 abs~;
#X obj 1147 642 *~ -1;
#X obj 1146 666 +~ 1;
#X obj 1250 590 line~;
#X obj 1250 614 abs~;
#X obj 1249 642 *~ -1;
#X obj 1144 492 del;
#X obj 1163 462 / 4;
#X obj 1247 518 del;
#X obj 1266 488 / 4;
#X obj 916 539 f;
#X obj 1039 540 f;
#X obj 1148 541 f;
#X obj 1250 543 f;
#X text 1231 384 speed;
#X obj 1068 354 hsl 128 30 0 2000 0 0 empty empty empty -2 -8 0 10 #fcfcfc #000000 #000000 0 1;
#X obj 1206 425 / 2;
#X obj 1089 436 / 4;
#X obj 1248 666 +~ 2;
#X msg 916 565 -1 \, 1 \$1;
#X msg 1039 566 -1 \, 1 \$1;
#X msg 1148 567 -1 \, 1 \$1;
#X msg 1250 567 -1 \, 1 \$1;
#X text 1012 393 ON;
#X obj 872 841 dac~ 1 2 3 4;
#X obj 508 81 adc~ 1 2 3;
#X obj 1125 758 *~;
#X text 1106 397 controlador manual;
#X obj 1921 492 +~;
#X obj 1920 444 +~;
#X obj 1920 469 +~;
#X obj 2044 427 +~;
#X obj 1921 523 +~;
#X obj 1922 546 +~;
#X obj 1920 423 +~;
#X obj 2151 569 osc~ 493.883;
#X obj 2120 341 +~;
#X obj 2031 339 +~;
#X obj 1929 311 +~;
#X text 2053 260 comment;
#X obj 1891 341 +~;
#X obj 1846 319 +~;
#X obj 1891 372 +~;
#X obj 1921 401 +~;
#X obj 2067 556 osc~ 379.91;
#X obj 2148 463 osc~ 292.238;
#X obj 2048 459 osc~ 224.798;
#X obj 2133 380 osc~ 172.922;
#X obj 2045 380 osc~ 133.017;
#X obj 2121 289 osc~ 102.321;
#X obj 2031 268 osc~ 78.708;
#X obj 1929 250 osc~ 60.544;
#X obj 1846 250 osc~ 46.572;
#X obj 2067 595 +~;
#X obj 2148 517 +~;
#X obj 2047 517 +~;
#X obj 2134 429 +~;
#X obj 2150 613 +~;
#X obj 1861 283 osc~ 47;
#X obj 1944 284 osc~ 61;
#X obj 2136 310 osc~ 103;
#X obj 2060 399 osc~ 134;
#X obj 2148 403 osc~ 173;
#X obj 2065 481 osc~ 225;
#X obj 2164 486 osc~ 293;
#X obj 2086 576 osc~ 380;
#X obj 2164 589 osc~ 494;
#X obj 2046 300 osc~ 79;
#X text 1819 200 Babel [493.883 hz/ 1.3];
#N canvas 189 75 660 424 chord 0;
#X obj 87 97 -~ 0.5;
#X obj 87 146 clip~ -0.5 0.5;
#X obj 87 169 cos~;
#X obj 91 315 outlet~;
#X obj 221 97 -~ 0.5;
#X obj 221 146 clip~ -0.5 0.5;
#X obj 221 169 cos~;
#X obj 356 100 -~ 0.5;
#X obj 356 149 clip~ -0.5 0.5;
#X obj 356 172 cos~;
#X obj 491 100 -~ 0.5;
#X obj 491 149 clip~ -0.5 0.5;
#X obj 491 172 cos~;
#X text 147 32 test sound for phaser;
#X obj 91 285 *~ 0.3;
#X obj 87 122 *~ 1;
#X obj 221 122 *~ 1;
#X obj 356 125 *~ 1;
#X obj 491 125 *~ 1;
#X obj 91 252 hip~ 3;
#X obj 87 74 phasor~ 79;
#X obj 221 74 phasor~ 81;
#X obj 356 77 phasor~ 83;
#X obj 491 77 phasor~ 85;
#X connect 0 0 15 0;
#X connect 1 0 2 0;
#X connect 2 0 19 0;
#X connect 4 0 16 0;
#X connect 5 0 6 0;
#X connect 6 0 19 0;
#X connect 7 0 17 0;
#X connect 8 0 9 0;
#X connect 9 0 19 0;
#X connect 10 0 18 0;
#X connect 11 0 12 0;
#X connect 12 0 19 0;
#X connect 14 0 3 0;
#X connect 15 0 1 0;
#X connect 16 0 5 0;
#X connect 17 0 8 0;
#X connect 18 0 11 0;
#X connect 19 0 14 0;
#X connect 20 0 0 0;
#X connect 21 0 4 0;
#X connect 22 0 7 0;
#X connect 23 0 10 0;
#X restore 1439 357 pd chord;
#X obj 1461 411 rpole~;
#X obj 1461 386 rzero_rev~;
#X obj 1461 460 rpole~;
#X obj 1461 435 rzero_rev~;
#X obj 1461 508 rpole~;
#X obj 1461 483 rzero_rev~;
#X obj 1461 557 rpole~;
#X obj 1461 532 rzero_rev~;
#X obj 1438 587 +~;
#X obj 1558 438 phasor~ 0.3;
#X obj 1558 470 expr~ 1 - 0.03 - 0.6*abs($v1-0.5)*abs($v1-0.5);
#X obj 1911 575 *~ 0.01;
#X obj 1330 516 *~ 0.01;
#X connect 0 0 30 0;
#X connect 1 0 2 0;
#X connect 2 0 33 0;
#X connect 3 0 32 0;
#X connect 4 0 1 0;
#X connect 7 0 9 0;
#X connect 9 0 6 0;
#X connect 11 0 29 0;
#X connect 12 0 13 0;
#X connect 13 0 19 0;
#X connect 14 0 31 0;
#X connect 16 0 12 0;
#X connect 17 0 6 0;
#X connect 18 0 14 0;
#X connect 19 0 18 0;
#X connect 20 0 3 0;
#X connect 21 0 29 0;
#X connect 22 0 29 0;
#X connect 23 0 29 0;
#X connect 24 0 29 0;
#X connect 25 0 30 0;
#X connect 26 0 30 0;
#X connect 27 0 30 0;
#X connect 28 0 30 0;
#X connect 29 0 34 0;
#X connect 29 1 43 0;
#X connect 29 2 48 0;
#X connect 29 3 76 0;
#X connect 30 0 74 0;
#X connect 30 0 74 1;
#X connect 31 0 21 0;
#X connect 31 1 22 0;
#X connect 31 2 23 0;
#X connect 31 3 24 0;
#X connect 32 0 25 0;
#X connect 32 1 26 0;
#X connect 32 2 27 0;
#X connect 32 3 28 0;
#X connect 33 0 20 0;
#X connect 34 0 74 0;
#X connect 35 0 38 0;
#X connect 35 0 60 0;
#X connect 36 0 35 1;
#X connect 36 0 57 0;
#X connect 36 0 59 0;
#X connect 36 0 66 0;
#X connect 36 0 67 0;
#X connect 37 0 35 0;
#X connect 38 0 56 0;
#X connect 38 0 61 0;
#X connect 38 0 62 0;
#X connect 38 0 63 0;
#X connect 39 0 40 0;
#X connect 40 0 41 0;
#X connect 41 0 42 0;
#X connect 42 0 34 1;
#X connect 43 0 74 1;
#X connect 44 0 45 0;
#X connect 45 0 46 0;
#X connect 46 0 47 0;
#X connect 47 0 43 1;
#X connect 48 0 74 2;
#X connect 49 0 50 0;
#X connect 50 0 51 0;
#X connect 51 0 52 0;
#X connect 52 0 48 1;
#X connect 53 0 54 0;
#X connect 54 0 55 0;
#X connect 55 0 68 0;
#X connect 56 0 58 0;
#X connect 57 0 56 1;
#X connect 59 0 58 1;
#X connect 60 0 69 0;
#X connect 61 0 70 0;
#X connect 62 0 71 0;
#X connect 63 0 72 0;
#X connect 65 0 36 0;
#X connect 66 0 63 1;
#X connect 66 0 62 1;
#X connect 66 0 61 1;
#X connect 66 0 60 1;
#X connect 67 0 38 1;
#X connect 68 0 76 1;
#X connect 69 0 39 0;
#X connect 70 0 44 0;
#X connect 71 0 49 0;
#X connect 72 0 53 0;
#X connect 75 0 17 0;
#X connect 75 0 16 0;
#X connect 75 0 4 0;
#X connect 76 0 74 3;
#X connect 78 0 82 0;
#X connect 79 0 80 0;
#X connect 80 0 78 0;
#X connect 81 0 84 1;
#X connect 82 0 83 0;
#X connect 83 0 131 0;
#X connect 84 0 79 0;
#X connect 85 0 107 0;
#X connect 86 0 93 1;
#X connect 87 0 92 1;
#X connect 90 0 92 0;
#X connect 92 0 93 0;
#X connect 93 0 84 0;
#X connect 94 0 103 0;
#X connect 95 0 104 0;
#X connect 96 0 105 0;
#X connect 97 0 106 0;
#X connect 98 0 81 0;
#X connect 99 0 86 0;
#X connect 100 0 87 0;
#X connect 101 0 88 0;
#X connect 102 0 91 0;
#X connect 103 0 82 1;
#X connect 104 0 78 1;
#X connect 105 0 80 1;
#X connect 106 0 79 1;
#X connect 107 0 83 1;
#X connect 108 0 91 1;
#X connect 109 0 88 1;
#X connect 110 0 86 1;
#X connect 111 0 81 1;
#X connect 112 0 106 1;
#X connect 113 0 105 1;
#X connect 114 0 104 1;
#X connect 115 0 103 1;
#X connect 116 0 107 1;
#X connect 117 0 87 1;
#X connect 119 0 121 0;
#X connect 119 0 128 0;
#X connect 120 0 123 0;
#X connect 121 0 120 0;
#X connect 122 0 125 0;
#X connect 123 0 122 0;
#X connect 124 0 127 0;
#X connect 125 0 124 0;
#X connect 126 0 128 1;
#X connect 127 0 126 0;
#X connect 128 0 132 0;
#X connect 129 0 130 0;
#X connect 130 0 121 1;
#X connect 130 0 120 1;
#X connect 130 0 123 1;
#X connect 130 0 122 1;
#X connect 130 0 125 1;
#X connect 130 0 124 1;
#X connect 130 0 127 1;
#X connect 130 0 126 1;
#X connect 131 0 34 0;
#X connect 131 0 43 0;
#X connect 131 0 48 0;
#X connect 131 0 76 0;
#X connect 132 0 76 0;
#X connect 132 0 48 0;
#X connect 132 0 43 0;
#X connect 132 0 34 0;
