#N canvas 539 284 448 137 10;
#X obj 37 46 dsp;
#X obj 37 10 tgl 30 0 empty empty empty 17 7 0 10 #00fc04 #000000 #000000 0 1;
#X floatatom 37 96 5 0 0 0 - - - 0;
#X floatatom 52 69 5 0 0 0 - - - 0;
#N canvas 898 214 1280 700 Schwarzschild1 1;
#X obj 336 211 qlist;
#X msg 256 158 clear;
#X floatatom 851 62 8 0 0 0 - - - 0;
#X floatatom 1004 66 8 0 0 0 - - - 0;
#X obj 841 -3 r x;
#X obj 1010 -2 r y;
#X floatatom 1108 64 8 0 0 0 - - - 0;
#X floatatom 1195 67 8 0 0 0 - - - 0;
#X obj 1098 -1 r r;
#X obj 1201 -1 r t_rel;
#X floatatom 923 65 8 0 0 0 - - - 0;
#X obj 929 -3 r phi;
#X msg 355 151 bang;
#X floatatom 846 240 8 0 0 0 - - - 0;
#X floatatom 1139 243 8 0 0 0 - - - 0;
#X floatatom 1041 243 8 0 0 0 - - - 0;
#X floatatom 953 243 8 0 0 0 - - - 0;
#X obj 925 170 expr sqrt(pow(($f1+1) \, 2)+pow(($f2+1) \, 2)) \; sqrt(pow(($f1-1) \, 2)+pow(($f2+1) \, 2)) \; sqrt(pow(($f1-1) \, 2)+pow(($f2-1) \, 2)) \; sqrt(pow(($f1+1) \, 2)+pow(($f2-1) \, 2)) \;;
#X floatatom 851 367 8 0 0 0 - - - 0;
#X floatatom 1061 365 8 0 0 0 - - - 0;
#X floatatom 991 366 8 0 0 0 - - - 0;
#X floatatom 920 366 8 0 0 0 - - - 0;
#X obj 767 404 *~;
#X obj 765 458 *~;
#X obj 772 510 *~;
#X obj 774 563 *~;
#X obj 719 644 dac~ 1 2 3 4;
#X obj 1154 337 expr max($f1 \, $f2) \;;
#X obj 1154 377 expr max($f1 \, $f2) \;;
#X obj 1152 415 expr max($f1 \, $f2) \;;
#X floatatom 1180 456 8 0 0 0 - - - 0;
#X floatatom 856 481 8 0 0 0 - - - 0;
#X floatatom 1072 480 8 0 0 0 - - - 0;
#X floatatom 996 480 8 0 0 0 - - - 0;
#X floatatom 925 480 8 0 0 0 - - - 0;
#X msg 289 86 read b_\$1.txt;
#X floatatom 340 54 5 0 0 0 - - - 0;
#X msg 422 -10 bang;
#X obj 449 22 bng 15 250 50 0 empty empty empty 17 7 0 10 #fcfcfc #000000 #000000;
#X obj 281 20 random 251;
#X floatatom 620 138 5 0 0 0 - - - 0;
#X obj 408 319 line~;
#X obj 696 597 *~;
#X obj 605 598 *~;
#X obj 631 598 *~;
#X obj 665 598 *~;
#X floatatom 486 68 7 0 0 0 - - - 0;
#X obj 472 127 bng 15 250 50 0 empty empty empty 17 7 0 10 #fcfcfc #000000 #000000;
#X obj 444 94 delay;
#X obj 543 72 select 0 1;
#X floatatom 676 59 5 0 0 0 - - - 0;
#X obj 741 10 expr $f1<2.2;
#X msg 481 261 0 500;
#X msg 436 215 1 500;
#X floatatom 322 293 7 0 0 0 - - - 0;
#X obj 292 329 bng 15 250 50 0 empty empty empty 17 7 0 10 #fcfcfc #000000 #000000;
#X obj 264 296 delay;
#X obj 324 262 ii 500;
#X obj 648 10 expr $f1>16;
#X floatatom 1155 286 8 0 0 0 - - - 0;
#X obj 1221 254 ii 2;
#X floatatom 1178 526 8 0 0 0 - - - 0;
#X obj 1200 504 hsl 128 15 1 15 0 0 empty empty empty -2 -8 0 10 #fcfcfc #000000 #000000 0 1;
#X obj 854 284 expr pow($f1-sqrt(8) \, $f5)/pow(8 \, $f5/2) \; pow($f2-sqrt(8) \, $f5)/pow(8 \, $f5/2) \; pow($f3-sqrt(8) \, $f5)/pow(8 \, $f5/2) \; pow($f4-sqrt(8) \, $f5)/pow(8 \, $f5/2) \;;
#X obj 1080 444 expr $f1*$f2;
#X obj 625 174 osc~ \$1;
#X obj 628 373 freeverb~;
#X msg 205 363 roomsize \$1;
#X msg 205 408 damping \$1;
#X msg 205 452 width \$1;
#X msg 205 496 wet \$1;
#X msg 205 540 dry \$1;
#X msg 239 563 print;
#X msg 258 602 freeze \$1;
#X msg 263 639 bypass \$1;
#X obj 263 620 tgl 15 0 empty empty empty 0 -6 0 8 #fcfcfc #000000 #000000 0 1;
#X obj 258 583 tgl 15 0 empty empty empty 0 -6 0 8 #fcfcfc #000000 #000000 0 1;
#X obj 217 517 hsl 60 18 0 1 0 1 empty empty dry 2 9 1 12 #d8fcd8 #000000 #000000 4300 0;
#X obj 217 473 hsl 60 18 0 1 0 1 empty empty wet 2 9 1 12 #d8fcd8 #000000 #000000 1400 0;
#X obj 217 429 hsl 60 18 0 1 0 1 empty empty width 2 9 1 12 #fcfcc8 #000000 #000000 3600 0;
#X obj 217 385 hsl 60 18 0 2 0 1 empty empty damping 2 9 1 12 #fce0e0 #000000 #000000 4000 0;
#X obj 217 340 hsl 60 18 0.11 1.1 0 1 empty empty roomsize 2 9 1 12 #fce0e0 #000000 #000000 3400 0;
#X floatatom 187 344 3 0 0 0 - - - 0;
#X floatatom 187 389 3 0 0 0 - - - 0;
#X floatatom 187 434 3 0 0 0 - - - 0;
#X floatatom 187 477 3 0 0 0 - - - 0;
#X floatatom 187 521 3 0 0 0 - - - 0;
#X obj 584 112 vsl 15 128 0 2493.9 0 0 empty empty empty 0 -9 0 10 #fcfcfc #000000 #000000 0 1;
#X obj 772 360 *~;
#X obj 784 279 *~;
#X obj 816 280 *~;
#X text 1182 484 VOLUMEN de MAS a MENOS;
#X obj 947 406 expr $f1/($f5) \; $f2/($f5) \; $f3/($f5) \; $f4/($f5) \;;
#X floatatom 655 235 5 0 0 0 - - - 0;
#X obj 659 272 osc~ \$1;
#X obj 618 210 vsl 15 128 0 893.9 0 0 empty empty empty 0 -9 0 10 #fcfcfc #000000 #000000 0 1;
#X obj 615 109 expr (493.883+$f2)*$f1 \;;
#X obj 954 565 delwrite~ delayvoice 5000;
#X obj 486 36 ii 700;
#X msg 394 215 0 10;
#X obj 859 122 inlet~;
#X obj 910 122 inlet~;
#X obj 967 123 inlet~;
#X text 858 102 voz;
#X text 910 103 sinte1;
#X text 970 103 sinte2;
#X obj 701 155 expr (593.883+$f2)*$f1 \;;
#X obj 956 595 delread~ delayvoice 1500;
#X connect 0 1 56 0;
#X connect 1 0 0 0;
#X connect 2 0 17 0;
#X connect 3 0 17 1;
#X connect 4 0 2 0;
#X connect 5 0 3 0;
#X connect 6 0 51 0;
#X connect 6 0 58 0;
#X connect 7 0 96 0;
#X connect 7 0 106 0;
#X connect 8 0 6 0;
#X connect 9 0 7 0;
#X connect 11 0 10 0;
#X connect 12 0 0 0;
#X connect 13 0 63 0;
#X connect 14 0 63 3;
#X connect 15 0 63 2;
#X connect 16 0 63 1;
#X connect 17 0 13 0;
#X connect 17 1 16 0;
#X connect 17 2 15 0;
#X connect 17 3 14 0;
#X connect 18 0 27 0;
#X connect 18 0 92 0;
#X connect 19 0 29 1;
#X connect 19 0 92 3;
#X connect 20 0 28 1;
#X connect 20 0 92 2;
#X connect 21 0 27 1;
#X connect 21 0 92 1;
#X connect 22 0 43 1;
#X connect 23 0 44 1;
#X connect 24 0 45 1;
#X connect 25 0 42 1;
#X connect 27 0 28 0;
#X connect 28 0 29 0;
#X connect 29 0 30 0;
#X connect 30 0 64 0;
#X connect 31 0 22 1;
#X connect 32 0 25 1;
#X connect 33 0 24 1;
#X connect 34 0 23 1;
#X connect 35 0 0 0;
#X connect 35 0 12 0;
#X connect 36 0 96 1;
#X connect 36 0 106 1;
#X connect 37 0 38 0;
#X connect 37 0 39 0;
#X connect 37 0 99 0;
#X connect 37 0 48 0;
#X connect 39 0 35 0;
#X connect 39 0 36 0;
#X connect 40 0 65 0;
#X connect 41 0 43 0;
#X connect 41 0 44 0;
#X connect 41 0 45 0;
#X connect 41 0 42 0;
#X connect 42 0 26 3;
#X connect 43 0 26 0;
#X connect 44 0 26 1;
#X connect 45 0 26 2;
#X connect 46 0 48 1;
#X connect 48 0 53 0;
#X connect 48 0 47 0;
#X connect 49 1 52 0;
#X connect 51 0 50 0;
#X connect 51 0 49 0;
#X connect 52 0 41 0;
#X connect 53 0 41 0;
#X connect 54 0 56 1;
#X connect 56 0 55 0;
#X connect 56 0 37 0;
#X connect 57 0 54 0;
#X connect 58 0 49 0;
#X connect 58 0 50 0;
#X connect 59 0 63 4;
#X connect 60 0 59 0;
#X connect 61 0 64 1;
#X connect 62 0 61 0;
#X connect 63 0 18 0;
#X connect 63 1 21 0;
#X connect 63 2 20 0;
#X connect 63 3 19 0;
#X connect 64 0 92 4;
#X connect 65 0 89 1;
#X connect 65 0 90 1;
#X connect 66 0 22 0;
#X connect 66 0 23 0;
#X connect 66 0 24 0;
#X connect 66 0 25 0;
#X connect 66 1 22 0;
#X connect 66 1 23 0;
#X connect 66 1 24 0;
#X connect 66 1 25 0;
#X connect 67 0 66 0;
#X connect 68 0 66 0;
#X connect 69 0 66 0;
#X connect 70 0 66 0;
#X connect 71 0 66 0;
#X connect 72 0 66 0;
#X connect 73 0 66 0;
#X connect 74 0 66 0;
#X connect 75 0 74 0;
#X connect 76 0 73 0;
#X connect 77 0 71 0;
#X connect 77 0 86 0;
#X connect 78 0 70 0;
#X connect 78 0 85 0;
#X connect 79 0 69 0;
#X connect 79 0 84 0;
#X connect 80 0 68 0;
#X connect 80 0 83 0;
#X connect 81 0 67 0;
#X connect 81 0 82 0;
#X connect 87 0 40 0;
#X connect 88 0 97 0;
#X connect 89 0 66 0;
#X connect 89 0 66 1;
#X connect 90 0 66 0;
#X connect 90 0 66 1;
#X connect 92 0 31 0;
#X connect 92 1 34 0;
#X connect 92 2 33 0;
#X connect 92 3 32 0;
#X connect 93 0 94 0;
#X connect 94 0 88 1;
#X connect 95 0 93 0;
#X connect 96 0 40 0;
#X connect 96 0 87 0;
#X connect 98 0 46 0;
#X connect 99 0 41 0;
#X connect 100 0 88 0;
#X connect 101 0 89 0;
#X connect 102 0 90 0;
#X connect 106 0 93 0;
#X connect 106 0 95 0;
#X connect 107 0 66 1;
#X connect 107 0 66 0;
#X restore 106 23 pd Schwarzschild1;
#N canvas 422 31 1920 988 disco 1;
#X obj 88 457 *~;
#X obj 269 193 metro;
#X floatatom 304 166 5 0 0 0 - - - 0;
#X obj 269 166 tgl 15 0 empty empty empty 0 -6 0 8 #fcfcfc #000000 #000000 0 1;
#X obj 308 235 del;
#X obj 154 357 line~;
#X obj 154 381 abs~;
#X obj 153 409 *~ -1;
#X obj 152 433 +~ 1;
#X obj 211 458 *~;
#X obj 277 358 line~;
#X obj 277 382 abs~;
#X obj 276 410 *~ -1;
#X obj 275 434 +~ 1;
#X obj 320 459 *~;
#X obj 386 359 line~;
#X obj 386 383 abs~;
#X obj 385 411 *~ -1;
#X obj 384 435 +~ 1;
#X obj 488 359 line~;
#X obj 488 383 abs~;
#X obj 487 411 *~ -1;
#X obj 382 261 del;
#X obj 401 231 / 4;
#X obj 485 287 del;
#X obj 504 257 / 4;
#X obj 154 308 f;
#X obj 277 309 f;
#X obj 386 310 f;
#X obj 488 312 f;
#X text 469 153 speed;
#X obj 306 123 hsl 128 30 0 2000 0 0 empty empty empty -2 -8 0 10 #fcfcfc #000000 #000000 0 1;
#X obj 444 194 / 2;
#X obj 327 205 / 4;
#X obj 486 435 +~ 2;
#X obj 286 -236 vsl 50 128 0 0.1 0 0 empty empty empty 0 -9 0 10 #fc8000 #000000 #000000 0 1;
#X floatatom 102 -107 5 0 0 0 - - - 0;
#X obj 102 -68 osc~ \$1;
#X obj 105 -141 hsl 128 30 0 2218 0 0 empty empty empty -2 -8 0 10 #fcfcfc #000000 #000000 0 1;
#X obj 112 -32 *~;
#X msg 154 334 -1 \, 1 \$1;
#X msg 277 335 -1 \, 1 \$1;
#X msg 386 336 -1 \, 1 \$1;
#X msg 488 336 -1 \, 1 \$1;
#N canvas 0 22 796 453 (subpatch) 0;
#X array array1 100 float 3;
#A 0 0.0584429 0.0564592 0.0587481 0.0558489 0.0566118 0.0517289 0.0540178 0.0534074 0.0492874 0.0462355 0.0497452 0.0503555 0.0469985 0.0454726 0.0459304 0.0474563 0.0495926 0.0560015 0.0592059 0.0582904 0.0631733 0.0628681 0.0570696 0.0614948 0.0560015 0.0529496 0.0485244 0.0509659 0.0520341 0.0360118 0.0407422 0.0379955 0.036317 0.0375378 0.0381481 0.04532 0.0341807 0.0381481 0.0335704 0.0282296 0.0323496 0.0285348 0.028077 0.02472 0.0273141 0.0271615 0.0291452 0.0291452 0.0201422 0.0111393 0.0114444 0.0166326 0.0135807 0.0158696 0.0170904 0.0143437 0.0158696 0.0184637 0.0177007 0.0140385 0.01236 0.0129704 0.0117496 0.0105289 0.0108341 0.0143437 0.0186163 0.0169378 0.0132756 0.0135807 0.0137333 0.0109867 0.00442518 0.00350963 0.00595111 0.00335704 0.0111393 0.0141911 0.01236 0.00778222 0.00717185 0.0109867 0.01236 0.00839259 0.00305185 0.00396741 0.000915555 0.00167852 -0.000152593 -0.00183111 -0.00381481 -0.00473037 -0.00503555 -0.00106815 -0.00244148 -0.000152593 -0.00381481 -0.00671407 -0.00793481 -0.00686666;
#X coords 0 1 99 -1 200 140 1;
#X restore -345 28 graph;
#X obj -453 117 tabwrite~ array1;
#X obj -453 44 bng 15 250 50 0 empty empty empty 17 7 0 10 #fcfcfc #000000 #000000;
#X text -386 64 msec.;
#X obj -453 65 metro 160;
#X obj 308 -61 fiddle~;
#X obj 308 -9 moses 60;
#X floatatom 308 -37 5 0 0 0 - - - 0;
#X floatatom 357 -36 5 0 0 0 - - - 0;
#X floatatom 405 -36 5 0 0 0 - - - 0;
#X floatatom 457 -38 5 0 0 0 - - - 0;
#X obj 308 21 bng 15 250 50 0 empty empty empty 17 7 0 10 #fcfcfc #000000 #000000;
#X text 250 162 ON;
#X floatatom 286 -79 5 0 0 0 - - - 0;
#X text 107 -162 controlador manual;
#X text 292 -101 controlador manual;
#X obj 308 71 random 2000;
#X obj 308 47 metro 1500;
#X floatatom 308 96 3 0 0 0 - - - 0;
#X obj 236 576 dac~ 1 2 3 4;
#X obj -435 89 *~ 5;
#X obj -142 -118 adc~ 1 2 3;
#X obj 422 459 *~;
#X obj -249 -14 outlet~;
#X obj -192 -14 outlet~;
#X obj -132 -14 outlet~;
#X text 344 166 controlador manual;
#X connect 0 0 63 0;
#X connect 1 0 4 0;
#X connect 1 0 26 0;
#X connect 2 0 1 1;
#X connect 2 0 23 0;
#X connect 2 0 25 0;
#X connect 2 0 32 0;
#X connect 2 0 33 0;
#X connect 3 0 1 0;
#X connect 4 0 22 0;
#X connect 4 0 27 0;
#X connect 4 0 28 0;
#X connect 4 0 29 0;
#X connect 5 0 6 0;
#X connect 6 0 7 0;
#X connect 7 0 8 0;
#X connect 8 0 0 1;
#X connect 9 0 63 1;
#X connect 10 0 11 0;
#X connect 11 0 12 0;
#X connect 12 0 13 0;
#X connect 13 0 9 1;
#X connect 14 0 63 2;
#X connect 15 0 16 0;
#X connect 16 0 17 0;
#X connect 17 0 18 0;
#X connect 18 0 14 1;
#X connect 19 0 20 0;
#X connect 20 0 21 0;
#X connect 21 0 34 0;
#X connect 22 0 24 0;
#X connect 23 0 22 1;
#X connect 25 0 24 1;
#X connect 26 0 40 0;
#X connect 27 0 41 0;
#X connect 28 0 42 0;
#X connect 29 0 43 0;
#X connect 31 0 2 0;
#X connect 32 0 29 1;
#X connect 32 0 28 1;
#X connect 32 0 27 1;
#X connect 32 0 26 1;
#X connect 33 0 4 1;
#X connect 34 0 66 1;
#X connect 35 0 39 1;
#X connect 35 0 57 0;
#X connect 36 0 37 0;
#X connect 37 0 39 0;
#X connect 38 0 36 0;
#X connect 40 0 5 0;
#X connect 41 0 10 0;
#X connect 42 0 15 0;
#X connect 43 0 19 0;
#X connect 46 0 48 0;
#X connect 48 0 45 0;
#X connect 49 0 51 0;
#X connect 49 1 52 0;
#X connect 49 2 53 0;
#X connect 49 3 54 0;
#X connect 50 0 55 0;
#X connect 51 0 50 0;
#X connect 55 0 61 0;
#X connect 60 0 62 0;
#X connect 61 0 60 0;
#X connect 64 0 45 0;
#X connect 65 0 49 0;
#X connect 65 0 64 0;
#X connect 65 0 67 0;
#X connect 65 0 0 0;
#X connect 65 0 9 0;
#X connect 65 0 14 0;
#X connect 65 0 66 0;
#X connect 65 1 68 0;
#X connect 65 1 0 0;
#X connect 65 1 9 0;
#X connect 65 1 14 0;
#X connect 65 1 66 0;
#X connect 65 2 69 0;
#X connect 65 2 0 0;
#X connect 65 2 9 0;
#X connect 65 2 14 0;
#X connect 65 2 66 0;
#X connect 66 0 63 3;
#X restore 105 -5 pd disco de acrecion1;
#X connect 0 0 2 0;
#X connect 0 1 3 0;
#X connect 1 0 0 0;
#X connect 5 0 4 0;
#X connect 5 1 4 1;
#X connect 5 2 4 2;
